<?xml version="1.0" encoding="iso-8859-1"?>
<!-- Generator: Adobe Illustrator 19.0.0, SVG Export Plug-In . SVG Version: 6.00 Build 0)  -->
<svg version="1.1" id="Layer_1" xmlns="http://www.w3.org/2000/svg" xmlns:xlink="http://www.w3.org/1999/xlink" x="0px" y="0px"
	 viewBox="0 0 300 300" style="enable-background:new 0 0 300 300;" xml:space="preserve">
<g>
	<g>
		<g>
			<path d="M62.5,187.494c-17.231,0-31.25,14.025-31.25,31.262c0,17.231,14.019,31.25,31.25,31.25s31.25-14.019,31.25-31.25
				C93.75,201.519,79.731,187.494,62.5,187.494z M62.5,237.506c-10.338,0-18.75-8.412-18.75-18.75
				c0-10.337,8.412-18.762,18.75-18.762s18.75,8.425,18.75,18.762C81.25,229.094,72.838,237.506,62.5,237.506z"/>
			<path d="M243.75,187.494c-17.231,0-31.25,14.025-31.25,31.262c0,17.231,14.019,31.25,31.25,31.25S275,235.987,275,218.756
				C275,201.519,260.981,187.494,243.75,187.494z M243.75,237.506c-10.338,0-18.75-8.412-18.75-18.75
				c0-10.337,8.412-18.762,18.75-18.762s18.75,8.425,18.75,18.762C262.5,229.094,254.088,237.506,243.75,237.506z"/>
			<path d="M187.5,218.744h-75c-3.456,0-6.25,2.794-6.25,6.25c0,3.456,2.794,6.25,6.25,6.25h75c3.456,0,6.25-2.794,6.25-6.25
				C193.75,221.537,190.956,218.744,187.5,218.744z"/>
			<path d="M293.75,68.744h-175v-12.5c0-3.456-2.794-6.25-6.25-6.25H100c-3.456,0-6.25,2.794-6.25,6.25v12.5H75.001
				c0,0-0.001,0-0.001,0c-27.569,0-50,22.431-50,50v21.131L3.456,150.65C1.338,151.713,0,153.875,0,156.244v75
				c0,3.456,2.794,6.25,6.25,6.25s6.25-2.794,6.25-6.25v-71.131l21.544-10.775c2.119-1.063,3.456-3.225,3.456-5.594v-25
				c0-20.681,16.818-37.5,37.499-37.5c0,0,0.001,0,0.001,0h212.5v150c0,3.456,2.794,6.25,6.25,6.25s6.25-2.794,6.25-6.25V74.994
				C300,71.537,297.206,68.744,293.75,68.744z"/>
			<path d="M93.75,89.925c-16.194,0-40.675,18.975-40.675,47.569c0,3.456,2.794,6.25,6.25,6.25H93.75c3.456,0,6.25-2.794,6.25-6.25
				V96.175C100,92.719,97.206,89.925,93.75,89.925z M87.5,131.244H66.125c2.513-14.05,13.131-23.675,21.375-27.256V131.244z"/>
			<path d="M237.5,174.994v-18.75h18.75c3.456,0,6.25-2.794,6.25-6.25v-25c0-3.456-2.794-6.25-6.25-6.25H237.5v-18.75
				c0-3.456-2.794-6.25-6.25-6.25h-25c-3.456,0-6.25,2.794-6.25,6.25v18.75h-18.75c-3.456,0-6.25,2.794-6.25,6.25v25
				c0,3.456,2.794,6.25,6.25,6.25H200v18.75c0,3.456,2.794,6.25,6.25,6.25h25C234.706,181.244,237.5,178.45,237.5,174.994z
				 M225,149.994v18.75h-12.5v-18.75c0-3.456-2.794-6.25-6.25-6.25H187.5v-12.5h18.75c3.456,0,6.25-2.794,6.25-6.25v-18.75H225
				v18.75c0,3.456,2.794,6.25,6.25,6.25H250v12.5h-18.75C227.794,143.744,225,146.538,225,149.994z"/>
		</g>
	</g>
</g>
<g>
</g>
<g>
</g>
<g>
</g>
<g>
</g>
<g>
</g>
<g>
</g>
<g>
</g>
<g>
</g>
<g>
</g>
<g>
</g>
<g>
</g>
<g>
</g>
<g>
</g>
<g>
</g>
<g>
</g>
</svg>
