<?xml version="1.0" encoding="iso-8859-1"?>
<!-- Generator: Adobe Illustrator 19.0.0, SVG Export Plug-In . SVG Version: 6.00 Build 0)  -->
<svg version="1.1" id="Layer_1" xmlns="http://www.w3.org/2000/svg" xmlns:xlink="http://www.w3.org/1999/xlink" x="0px" y="0px"
	 viewBox="0 0 512 512" style="enable-background:new 0 0 512 512;" xml:space="preserve">
<circle style="fill:#4AB8A1;" cx="256" cy="256" r="256"/>
<path style="fill:#242424;" d="M78.108,440C124.172,484.544,186.86,512,256,512s131.828-27.456,177.892-72H78.108z"/>
<g>
	<circle style="opacity:0.2;fill:#FFD464;enable-background:new    ;" cx="199.812" cy="135" r="24"/>
	<circle style="opacity:0.2;fill:#FFD464;enable-background:new    ;" cx="199.812" cy="135" r="40"/>
	<circle style="opacity:0.2;fill:#FFD464;enable-background:new    ;" cx="199.812" cy="135" r="60"/>
	<path style="fill:#FFD464;" d="M211.812,135.876c0-6.628-5.372-12-12-12s-12,5.372-12,12c0,0.044,0.012,0.084,0.012,0.124h-0.012
		v16h24v-16H211.8C211.8,135.956,211.812,135.916,211.812,135.876z"/>
</g>
<rect x="187.812" y="148" style="fill:#F2C95F;" width="24" height="4"/>
<path style="fill:#F5F5F5;" d="M255.812,144v16h-88c-17.6,0-32,14.4-32,32v82.264l-60,9.736c-8.8,0-16,7.2-16,16v80
	c0,8.8,7.2,16,16,16h196h128h70.468C496.628,355.756,512,307.688,512,256c0-46.644-12.536-90.336-34.332-128H271.812
	C263.012,128,255.812,135.2,255.812,144z"/>
<rect x="251.812" y="160" style="fill:#E6E6E6;" width="4" height="224"/>
<path style="fill:#C2E2F2;" d="M151.812,264v-72c0-8.824,7.176-16,16-16h76v88H151.812z"/>
<circle style="fill:#242424;" cx="167.312" cy="397" r="44"/>
<circle style="fill:#F5F5F5;" cx="167.312" cy="397" r="28"/>
<circle style="fill:#263740;" cx="167.312" cy="397" r="12"/>
<g>
	<path style="fill:#CC584C;" d="M505.78,312H59.812v16H501.66C503.204,322.736,504.58,317.4,505.78,312z"/>
	<path style="fill:#CC584C;" d="M179.812,160L179.812,160c0-4.4,3.6-8,8-8h24c4.4,0,8,3.6,8,8l0,0H179.812z"/>
	<polygon style="fill:#CC584C;" points="355.812,200 335.812,200 335.812,180 311.812,180 311.812,200 291.812,200 291.812,224 
		311.812,224 311.812,244 335.812,244 335.812,224 355.812,224 	"/>
</g>
<g>
</g>
<g>
</g>
<g>
</g>
<g>
</g>
<g>
</g>
<g>
</g>
<g>
</g>
<g>
</g>
<g>
</g>
<g>
</g>
<g>
</g>
<g>
</g>
<g>
</g>
<g>
</g>
<g>
</g>
</svg>
