<?xml version="1.0" encoding="iso-8859-1"?>
<!-- Generator: Adobe Illustrator 19.0.0, SVG Export Plug-In . SVG Version: 6.00 Build 0)  -->
<svg version="1.1" id="Layer_1" xmlns="http://www.w3.org/2000/svg" xmlns:xlink="http://www.w3.org/1999/xlink" x="0px" y="0px"
	 viewBox="0 0 512 512" style="enable-background:new 0 0 512 512;" xml:space="preserve">
<path style="fill:#FFFFFF;" d="M256,508C117.04,508,4,394.96,4,256S117.04,4,256,4s252,113.056,252,252S394.96,508,256,508z"/>
<g>
	<path style="fill:#D6D6D6;" d="M256,8c136.752,0,248,111.248,248,248S392.752,504,256,504S8,392.752,8,256S119.248,8,256,8 M256,0
		C114.608,0,0,114.608,0,256s114.608,256,256,256s256-114.608,256-256S397.392,0,256,0L256,0z"/>
	<circle style="fill:#D6D6D6;" cx="256" cy="103.072" r="32"/>
</g>
<g>
	<path style="fill:#333333;" d="M254.48,209.552l-30.944-67.088c0,0-32.464,0.432-32.464,30.304s0,36.784,0,36.784
		S254.704,209.552,254.48,209.552z"/>
	<path style="fill:#333333;" d="M257.52,209.552l30.944-67.088c0,0,32.464,0.432,32.464,30.304s0,36.784,0,36.784
		S257.296,209.552,257.52,209.552z"/>
</g>
<polygon style="fill:#0BA4E0;" points="256,142.464 233.712,142.464 256,191.808 278.288,142.464 "/>
<circle style="fill:#D6D6D6;" cx="165.36" cy="267.856" r="32"/>
<g>
	<path style="fill:#333333;" d="M163.856,374.336l-30.944-67.088c0,0-32.464,0.432-32.464,30.304s0,36.784,0,36.784
		S164.064,374.336,163.856,374.336z"/>
	<path style="fill:#333333;" d="M166.88,374.336l30.944-67.088c0,0,32.464,0.432,32.464,30.304s0,36.784,0,36.784
		S166.672,374.336,166.88,374.336z"/>
</g>
<polygon style="fill:#0BA4E0;" points="165.36,307.248 143.072,307.248 165.36,356.592 187.664,307.248 "/>
<circle style="fill:#D6D6D6;" cx="346.64" cy="267.856" r="32"/>
<g>
	<path style="fill:#333333;" d="M345.12,374.336l-30.944-67.088c0,0-32.464,0.432-32.464,30.304s0,36.784,0,36.784
		S345.328,374.336,345.12,374.336z"/>
	<path style="fill:#333333;" d="M348.144,374.336l30.944-67.088c0,0,32.464,0.432,32.464,30.304s0,36.784,0,36.784
		S347.936,374.336,348.144,374.336z"/>
</g>
<polygon style="fill:#0BA4E0;" points="346.64,307.248 324.336,307.248 346.64,356.592 368.928,307.248 "/>
<g>
</g>
<g>
</g>
<g>
</g>
<g>
</g>
<g>
</g>
<g>
</g>
<g>
</g>
<g>
</g>
<g>
</g>
<g>
</g>
<g>
</g>
<g>
</g>
<g>
</g>
<g>
</g>
<g>
</g>
</svg>
