<?xml version="1.0" encoding="iso-8859-1"?>
<!-- Generator: Adobe Illustrator 19.0.0, SVG Export Plug-In . SVG Version: 6.00 Build 0)  -->
<svg version="1.1" id="Layer_1" xmlns="http://www.w3.org/2000/svg" xmlns:xlink="http://www.w3.org/1999/xlink" x="0px" y="0px"
	 viewBox="0 0 512 512" style="enable-background:new 0 0 512 512;" xml:space="preserve">
<g>
	<g>
		<g>
			<path d="M353.553,197.085v-31.45c0-7.276-5.899-13.175-13.175-13.175H171.622c-7.276,0-13.175,5.899-13.175,13.175v31.45
				c0,53.791,43.762,97.553,97.553,97.553S353.553,250.876,353.553,197.085z M255.998,268.288
				c-39.262,0-71.203-31.942-71.203-71.203V178.81h0.002h142.405v18.275C327.201,236.346,295.26,268.288,255.998,268.288z"/>
			<path d="M338.459,50.834c0.02-0.123,0.038-0.232,0.054-0.331C338.497,50.599,338.479,50.708,338.459,50.834z"/>
			<path d="M338.43,51.011c0.01-0.061,0.02-0.122,0.029-0.177C338.449,50.891,338.44,50.949,338.43,51.011z"/>
			<path d="M338.25,52.116c0.068-0.418,0.129-0.792,0.18-1.105C338.382,51.307,338.322,51.674,338.25,52.116z"/>
			<path d="M338.207,52.379c0.015-0.092,0.029-0.176,0.043-0.263C338.236,52.202,338.222,52.29,338.207,52.379z"/>
			<path d="M406.248,378.719V150.266c0-38.494-14.364-74.652-40.574-102.588l5.268-32.386C372.248,7.28,366.054,0,357.94,0H154.06
				c-8.118,0-14.308,7.283-13.003,15.292l5.268,32.386c-26.21,27.936-40.574,64.094-40.574,102.588v228.252
				c-27.267,34.048-42.266,76.554-42.266,120.307c0,7.276,5.899,13.175,13.175,13.175c11.294,0,345.806,0,358.678,0
				c7.276,0,13.175-5.899,13.175-13.175C448.514,454.342,432.937,412.189,406.248,378.719z M342.446,26.35
				c-8.797,54.065-5.484,33.686-4.239,26.029c-0.866,5.325-3.343,20.558-9.04,55.586H182.833
				c-6.853-42.134-11.698-71.897-13.279-81.615H342.446z M132.102,150.266c0-24.33,6.958-47.534,19.945-67.421l6.575,40.411
				c1.036,6.375,6.545,11.06,13.005,11.06h168.746c6.459,0,11.968-4.683,13.005-11.06l6.575-40.411
				c12.989,19.887,19.945,43.091,19.945,67.421v201.202c-70.982-59.713-175.495-60.814-247.796,0V150.266z M179.875,485.65H90.362
				c4.242-53.227,33.779-101.227,79.628-129.01l-27.397,76.247c-2.166,6.031,0.32,12.745,5.89,15.91l31.808,18.073L179.875,485.65z
				 M206.23,485.65l0.58-26.057c0.109-4.843-2.452-9.354-6.663-11.749l-29.008-16.481l22.382-62.286l43.5,116.573H206.23z
				 M210.425,339.008c29.653-8.495,61.065-8.613,91.15,0L256,461.141L210.425,339.008z M305.19,459.593l0.578,26.057h-30.789
				l43.5-116.573l22.38,62.286l-29.006,16.481C307.643,450.237,305.081,454.75,305.19,459.593z M332.125,485.652v-0.002
				l-0.416-18.781l31.808-18.073c5.57-3.166,8.056-9.88,5.89-15.91l-27.397-76.248c0.021,0.012,0.044,0.025,0.065,0.039
				c45.187,27.483,75.273,75.611,79.56,128.975H332.125z"/>
			<path d="M338.512,50.503c0.047-0.292,0.074-0.455,0.082-0.501C338.586,50.048,338.558,50.224,338.512,50.503z"/>
			<path d="M338.594,50.002C338.597,49.985,338.597,49.983,338.594,50.002L338.594,50.002z"/>
			<path d="M236.78,80.333h6.045v6.045c0,7.276,5.899,13.175,13.175,13.175s13.175-5.899,13.175-13.175v-6.045h6.045
				c7.276,0,13.175-5.899,13.175-13.175c0-7.276-5.899-13.175-13.175-13.175h-6.045v-6.045c0-7.276-5.899-13.175-13.175-13.175
				s-13.175,5.899-13.175,13.175v6.045h-6.045c-7.276,0-13.175,5.899-13.175,13.175C223.605,74.434,229.504,80.333,236.78,80.333z"
				/>
		</g>
	</g>
</g>
<g>
</g>
<g>
</g>
<g>
</g>
<g>
</g>
<g>
</g>
<g>
</g>
<g>
</g>
<g>
</g>
<g>
</g>
<g>
</g>
<g>
</g>
<g>
</g>
<g>
</g>
<g>
</g>
<g>
</g>
</svg>
